<svg version="1.0" xmlns="http://www.w3.org/2000/svg" width="192" height="192" viewBox="0 0 192 192">
<g transform="translate(0,192) scale(0.1,-0.1)" fill="#000000" stroke="none">
<path d="M960 1720 c-36 -36 -49 -84 -84 -310 -11 -71 -24 -136 -29 -145 -9 -16 -47 -45 -59 -45 -3 0 -25 14 -48 31 -54 40 -90 48 -160 36 -86 -15 -150 -75 -150 -142 0 -42 26 -85 55 -90 12 -2 42 4 67 13 45 16 48 16 80 -3 76 -45 128 -125 128 -195 0 -35 -5 -45 -30 -60 -38 -23 -90 -25 -130 -5 -30 15 -80 70 -80 88 0 6 -18 12 -40 12 -48 0 -80 -32 -80 -80 0 -48 32 -80 80 -80 22 0 40 -6 40 -12 0 -18 50 -73 80 -88 40 -20 92 -18 130 5 25 15 30 25 30 60 0 70 -52 150 -128 195 -32 19 -35 19 -80 3 -25 -9 -55 -15 -67 -13 -29 5 -55 48 -55 90 0 67 64 127 150 142 70 12 106 4 160 -36 23 -17 45 -31 48 -31 12 0 50 29 59 45 5 9 18 74 29 145 35 226 48 274 84 310 36 36 84 49 310 84 71 11 136 24 145 29 16 9 45 47 45 59 0 3 -14 25 -31 48 -40 54 -48 90 -36 160 15 86 75 150 142 150 42 0 85 -26 90 -55 2 -12 -4 -42 -13 -67 -16 -45 -16 -48 3 -80 45 -76 125 -128 195 -128 35 0 45 5 60 30 23 38 25 90 5 130 -15 30 -70 80 -88 80 -6 0 -12 18 -12 40 0 48 -32 80 -80 80 -48 0 -80 -32 -80 -80 0 -22 6 -40 12 -40 18 0 73 -50 88 -80 20 -40 18 -92 -5 -130 -15 -25 -25 -30 -60 -30 -70 0 -150 52 -195 128 -19 32 -19 35 -3 80 9 25 15 55 13 67 -5 29 -48 55 -90 55 -67 0 -127 -64 -142 -150 -12 -70 -4 -106 36 -160 17 -23 31 -45 31 -48 0 -12 -29 -50 -45 -59 -9 -5 -74 -18 -145 -29 -226 -35 -274 -48 -310 -84z"/>
</g>
</svg>